<svg width="401" height="144" viewBox="0 0 401 144" fill="none" xmlns="http://www.w3.org/2000/svg">
<path d="M0 6C0 2.68629 2.68629 0 6 0H395C398.314 0 401 2.68629 401 6V138C401 141.314 398.314 144 395 144H6.00001C2.6863 144 0 141.314 0 138V6Z" fill="#F3F4F6"/>
<path d="M32 64C32 46.3269 46.3269 32 64 32C81.6731 32 96 46.3269 96 64C96 81.6731 81.6731 96 64 96C46.3269 96 32 81.6731 32 64Z" fill="#E5E7EB"/>
<path d="M76.8 78.4V75.2C76.8 73.5026 76.1257 71.8747 74.9255 70.6745C73.7253 69.4743 72.0974 68.8 70.4 68.8H57.6C55.9026 68.8 54.2748 69.4743 53.0745 70.6745C51.8743 71.8747 51.2 73.5026 51.2 75.2V78.4" stroke="#111827" stroke-width="2.56" stroke-linecap="round" stroke-linejoin="round"/>
<path d="M64 62.4C67.5346 62.4 70.4 59.5346 70.4 56C70.4 52.4654 67.5346 49.6 64 49.6C60.4654 49.6 57.6 52.4654 57.6 56C57.6 59.5346 60.4654 62.4 64 62.4Z" stroke="#111827" stroke-width="2.56" stroke-linecap="round" stroke-linejoin="round"/>
<path d="M119.108 50.2898H116.983C116.922 49.9413 116.811 49.6326 116.648 49.3636C116.485 49.0909 116.282 48.8598 116.04 48.6705C115.797 48.4811 115.521 48.339 115.21 48.2443C114.903 48.1458 114.572 48.0966 114.216 48.0966C113.583 48.0966 113.023 48.2557 112.534 48.5739C112.045 48.8883 111.663 49.3504 111.386 49.9602C111.11 50.5663 110.972 51.3068 110.972 52.1818C110.972 53.072 111.11 53.822 111.386 54.4318C111.667 55.0379 112.049 55.4962 112.534 55.8068C113.023 56.1136 113.581 56.267 114.21 56.267C114.559 56.267 114.884 56.2216 115.188 56.1307C115.494 56.036 115.769 55.8977 116.011 55.7159C116.258 55.5341 116.464 55.3106 116.631 55.0455C116.801 54.7803 116.919 54.4773 116.983 54.1364L119.108 54.1477C119.028 54.7008 118.856 55.2197 118.591 55.7045C118.33 56.1894 117.987 56.6174 117.562 56.9886C117.138 57.3561 116.642 57.6439 116.074 57.8523C115.506 58.0568 114.875 58.1591 114.182 58.1591C113.159 58.1591 112.246 57.9223 111.443 57.4489C110.64 56.9754 110.008 56.2917 109.545 55.3977C109.083 54.5038 108.852 53.4318 108.852 52.1818C108.852 50.928 109.085 49.8561 109.551 48.9659C110.017 48.072 110.652 47.3883 111.455 46.9148C112.258 46.4413 113.167 46.2045 114.182 46.2045C114.83 46.2045 115.432 46.2955 115.989 46.4773C116.545 46.6591 117.042 46.9261 117.477 47.2784C117.913 47.6269 118.271 48.0549 118.551 48.5625C118.835 49.0663 119.021 49.642 119.108 50.2898ZM123.004 46.3636V58H120.947V46.3636H123.004ZM125.119 58V49.2727H127.176V58H125.119ZM126.153 48.0341C125.828 48.0341 125.547 47.9261 125.312 47.7102C125.078 47.4905 124.96 47.2273 124.96 46.9205C124.96 46.6098 125.078 46.3466 125.312 46.1307C125.547 45.911 125.828 45.8011 126.153 45.8011C126.483 45.8011 126.763 45.911 126.994 46.1307C127.229 46.3466 127.347 46.6098 127.347 46.9205C127.347 47.2273 127.229 47.4905 126.994 47.7102C126.763 47.9261 126.483 48.0341 126.153 48.0341ZM133.155 58.1705C132.28 58.1705 131.524 57.9886 130.888 57.625C130.255 57.2576 129.768 56.7386 129.428 56.0682C129.087 55.3939 128.916 54.6004 128.916 53.6875C128.916 52.7898 129.087 52.0019 129.428 51.3239C129.772 50.642 130.253 50.1117 130.871 49.733C131.488 49.3504 132.214 49.1591 133.047 49.1591C133.585 49.1591 134.092 49.2462 134.57 49.4205C135.051 49.5909 135.475 49.8561 135.842 50.2159C136.214 50.5758 136.505 51.0341 136.717 51.5909C136.929 52.1439 137.036 52.803 137.036 53.5682V54.1989H129.882V52.8125H135.064C135.06 52.4186 134.975 52.0682 134.808 51.7614C134.642 51.4508 134.409 51.2064 134.109 51.0284C133.814 50.8504 133.469 50.7614 133.075 50.7614C132.655 50.7614 132.286 50.8636 131.967 51.0682C131.649 51.2689 131.401 51.5341 131.223 51.8636C131.049 52.1894 130.96 52.5473 130.956 52.9375V54.1477C130.956 54.6553 131.049 55.0909 131.234 55.4545C131.42 55.8144 131.679 56.0909 132.013 56.2841C132.346 56.4735 132.736 56.5682 133.183 56.5682C133.482 56.5682 133.753 56.5265 133.996 56.4432C134.238 56.3561 134.448 56.2292 134.626 56.0625C134.804 55.8958 134.939 55.6894 135.03 55.4432L136.95 55.6591C136.829 56.1667 136.598 56.6098 136.257 56.9886C135.92 57.3636 135.488 57.6553 134.962 57.8636C134.435 58.0682 133.833 58.1705 133.155 58.1705ZM140.832 52.8864V58H138.776V49.2727H140.741V50.7557H140.844C141.045 50.267 141.365 49.8788 141.804 49.5909C142.247 49.303 142.795 49.1591 143.446 49.1591C144.048 49.1591 144.573 49.2879 145.02 49.5455C145.471 49.803 145.819 50.1761 146.065 50.6648C146.315 51.1534 146.438 51.7462 146.435 52.4432V58H144.378V52.7614C144.378 52.178 144.226 51.7216 143.923 51.392C143.624 51.0625 143.209 50.8977 142.679 50.8977C142.319 50.8977 141.999 50.9773 141.719 51.1364C141.442 51.2917 141.224 51.517 141.065 51.8125C140.91 52.108 140.832 52.4659 140.832 52.8864ZM152.884 49.2727V50.8636H147.866V49.2727H152.884ZM149.105 47.1818H151.162V55.375C151.162 55.6515 151.204 55.8636 151.287 56.0114C151.374 56.1553 151.488 56.2538 151.628 56.3068C151.768 56.3598 151.923 56.3864 152.094 56.3864C152.223 56.3864 152.34 56.3769 152.446 56.358C152.556 56.339 152.639 56.322 152.696 56.3068L153.043 57.9148C152.933 57.9527 152.776 57.9943 152.571 58.0398C152.37 58.0852 152.124 58.1117 151.832 58.1193C151.317 58.1345 150.853 58.0568 150.44 57.8864C150.027 57.7121 149.7 57.4432 149.457 57.0795C149.219 56.7159 149.101 56.2614 149.105 55.7159V47.1818ZM168.226 46.3636V58H166.351L160.868 50.0739H160.771V58H158.663V46.3636H160.55L166.027 54.2955H166.129V46.3636H168.226ZM172.943 58.1761C172.39 58.1761 171.892 58.0777 171.449 57.8807C171.009 57.6799 170.661 57.3845 170.403 56.9943C170.15 56.6042 170.023 56.1231 170.023 55.5511C170.023 55.0587 170.114 54.6515 170.295 54.3295C170.477 54.0076 170.725 53.75 171.04 53.5568C171.354 53.3636 171.708 53.2178 172.102 53.1193C172.5 53.017 172.911 52.9432 173.335 52.8977C173.847 52.8447 174.261 52.7973 174.58 52.7557C174.898 52.7102 175.129 52.642 175.273 52.5511C175.42 52.4564 175.494 52.3106 175.494 52.1136V52.0795C175.494 51.6515 175.367 51.3201 175.114 51.0852C174.86 50.8504 174.494 50.733 174.017 50.733C173.513 50.733 173.114 50.8428 172.818 51.0625C172.527 51.2822 172.33 51.5417 172.227 51.8409L170.307 51.5682C170.458 51.0379 170.708 50.5947 171.057 50.2386C171.405 49.8788 171.831 49.6098 172.335 49.4318C172.839 49.25 173.396 49.1591 174.006 49.1591C174.426 49.1591 174.845 49.2083 175.261 49.3068C175.678 49.4053 176.059 49.5682 176.403 49.7955C176.748 50.0189 177.025 50.3239 177.233 50.7102C177.445 51.0966 177.551 51.5795 177.551 52.1591V58H175.574V56.8011H175.506C175.381 57.0436 175.205 57.2708 174.977 57.483C174.754 57.6913 174.472 57.8598 174.131 57.9886C173.794 58.1136 173.398 58.1761 172.943 58.1761ZM173.477 56.6648C173.89 56.6648 174.248 56.5833 174.551 56.4205C174.854 56.2538 175.087 56.0341 175.25 55.7614C175.417 55.4886 175.5 55.1913 175.5 54.8693V53.8409C175.436 53.8939 175.326 53.9432 175.17 53.9886C175.019 54.0341 174.848 54.0739 174.659 54.108C174.47 54.142 174.282 54.1723 174.097 54.1989C173.911 54.2254 173.75 54.2481 173.614 54.267C173.307 54.3087 173.032 54.3769 172.79 54.4716C172.547 54.5663 172.356 54.6989 172.216 54.8693C172.076 55.036 172.006 55.2519 172.006 55.517C172.006 55.8958 172.144 56.1818 172.42 56.375C172.697 56.5682 173.049 56.6648 173.477 56.6648ZM179.619 58V49.2727H181.585V50.7557H181.688C181.869 50.2557 182.17 49.8655 182.591 49.5852C183.011 49.3011 183.513 49.1591 184.097 49.1591C184.688 49.1591 185.186 49.303 185.591 49.5909C186 49.875 186.288 50.2633 186.455 50.7557H186.545C186.739 50.2708 187.064 49.8845 187.523 49.5966C187.985 49.3049 188.532 49.1591 189.165 49.1591C189.968 49.1591 190.623 49.4129 191.131 49.9205C191.638 50.428 191.892 51.1686 191.892 52.142V58H189.83V52.4602C189.83 51.9186 189.686 51.5227 189.398 51.2727C189.11 51.0189 188.758 50.892 188.341 50.892C187.845 50.892 187.456 51.0473 187.176 51.358C186.9 51.6648 186.761 52.0644 186.761 52.5568V58H184.744V52.375C184.744 51.9242 184.608 51.5644 184.335 51.2955C184.066 51.0265 183.714 50.892 183.278 50.892C182.983 50.892 182.714 50.9678 182.472 51.1193C182.229 51.267 182.036 51.4773 181.892 51.75C181.748 52.0189 181.676 52.3333 181.676 52.6932V58H179.619ZM197.842 58.1705C196.967 58.1705 196.212 57.9886 195.575 57.625C194.943 57.2576 194.456 56.7386 194.115 56.0682C193.774 55.3939 193.604 54.6004 193.604 53.6875C193.604 52.7898 193.774 52.0019 194.115 51.3239C194.46 50.642 194.941 50.1117 195.558 49.733C196.176 49.3504 196.901 49.1591 197.734 49.1591C198.272 49.1591 198.78 49.2462 199.257 49.4205C199.738 49.5909 200.162 49.8561 200.53 50.2159C200.901 50.5758 201.193 51.0341 201.405 51.5909C201.617 52.1439 201.723 52.803 201.723 53.5682V54.1989H194.57V52.8125H199.751C199.748 52.4186 199.662 52.0682 199.496 51.7614C199.329 51.4508 199.096 51.2064 198.797 51.0284C198.501 50.8504 198.157 50.7614 197.763 50.7614C197.342 50.7614 196.973 50.8636 196.655 51.0682C196.337 51.2689 196.089 51.5341 195.911 51.8636C195.736 52.1894 195.647 52.5473 195.643 52.9375V54.1477C195.643 54.6553 195.736 55.0909 195.922 55.4545C196.107 55.8144 196.367 56.0909 196.7 56.2841C197.034 56.4735 197.424 56.5682 197.871 56.5682C198.17 56.5682 198.441 56.5265 198.683 56.4432C198.926 56.3561 199.136 56.2292 199.314 56.0625C199.492 55.8958 199.626 55.6894 199.717 55.4432L201.638 55.6591C201.517 56.1667 201.286 56.6098 200.945 56.9886C200.607 57.3636 200.176 57.6553 199.649 57.8636C199.123 58.0682 198.52 58.1705 197.842 58.1705Z" fill="#111827"/>
<path d="M112.375 84H109.233V73.8182H112.514C113.502 73.8182 114.347 74.022 115.05 74.4297C115.752 74.834 116.291 75.4157 116.665 76.1747C117.04 76.9304 117.227 77.8352 117.227 78.8892C117.227 79.9498 117.038 80.8629 116.661 81.6286C116.283 82.3909 115.732 82.9775 115.01 83.3885C114.287 83.7962 113.409 84 112.375 84ZM110.466 82.9062H112.295C113.137 82.9062 113.835 82.7438 114.388 82.419C114.942 82.0942 115.355 81.6319 115.626 81.032C115.898 80.4321 116.034 79.7178 116.034 78.8892C116.034 78.0672 115.9 77.3596 115.631 76.7663C115.363 76.1697 114.962 75.7124 114.428 75.3942C113.895 75.0727 113.23 74.9119 112.435 74.9119H110.466V82.9062ZM119.136 84V76.3636H120.31V84H119.136ZM119.733 75.0909C119.504 75.0909 119.307 75.013 119.141 74.8572C118.979 74.7015 118.898 74.5142 118.898 74.2955C118.898 74.0767 118.979 73.8894 119.141 73.7337C119.307 73.5779 119.504 73.5 119.733 73.5C119.962 73.5 120.157 73.5779 120.32 73.7337C120.485 73.8894 120.568 74.0767 120.568 74.2955C120.568 74.5142 120.485 74.7015 120.32 74.8572C120.157 75.013 119.962 75.0909 119.733 75.0909ZM122.459 84V76.3636H123.592V77.517H123.672C123.811 77.1392 124.063 76.8326 124.427 76.5973C124.792 76.362 125.203 76.2443 125.66 76.2443C125.747 76.2443 125.854 76.246 125.983 76.2493C126.113 76.2526 126.211 76.2576 126.277 76.2642V77.4574C126.237 77.4474 126.146 77.4325 126.003 77.4126C125.864 77.3894 125.717 77.3778 125.561 77.3778C125.19 77.3778 124.858 77.4557 124.567 77.6115C124.278 77.764 124.05 77.9761 123.881 78.2479C123.715 78.5163 123.632 78.8229 123.632 79.1676V84H122.459ZM130.637 84.1591C129.901 84.1591 129.266 83.9967 128.733 83.6719C128.202 83.3438 127.793 82.8864 127.505 82.2997C127.22 81.7098 127.077 81.0237 127.077 80.2415C127.077 79.4593 127.22 78.7699 127.505 78.1733C127.793 77.5734 128.194 77.1061 128.708 76.7713C129.225 76.4332 129.828 76.2642 130.518 76.2642C130.915 76.2642 131.308 76.3305 131.696 76.4631C132.084 76.5956 132.437 76.8111 132.755 77.1094C133.073 77.4044 133.327 77.7955 133.515 78.2827C133.704 78.7699 133.799 79.3698 133.799 80.0824V80.5795H127.912V79.5653H132.606C132.606 79.1345 132.519 78.75 132.347 78.4119C132.178 78.0739 131.936 77.8071 131.621 77.6115C131.31 77.416 130.942 77.3182 130.518 77.3182C130.05 77.3182 129.646 77.4342 129.305 77.6662C128.966 77.8949 128.706 78.1932 128.524 78.5611C128.342 78.929 128.251 79.3234 128.251 79.7443V80.4205C128.251 80.9972 128.35 81.486 128.549 81.8871C128.751 82.2848 129.031 82.5881 129.389 82.7969C129.747 83.0024 130.163 83.1051 130.637 83.1051C130.945 83.1051 131.224 83.062 131.472 82.9759C131.724 82.8864 131.941 82.7538 132.123 82.5781C132.306 82.3991 132.447 82.1771 132.546 81.9119L133.68 82.2301C133.56 82.6146 133.36 82.9527 133.078 83.2443C132.796 83.5327 132.448 83.758 132.034 83.9205C131.62 84.0795 131.154 84.1591 130.637 84.1591ZM138.686 84.1591C137.97 84.1591 137.354 83.9901 136.836 83.652C136.319 83.3139 135.922 82.8482 135.643 82.255C135.365 81.6617 135.226 80.9839 135.226 80.2216C135.226 79.446 135.368 78.7616 135.653 78.1683C135.942 77.5717 136.343 77.1061 136.856 76.7713C137.373 76.4332 137.977 76.2642 138.666 76.2642C139.203 76.2642 139.687 76.3636 140.118 76.5625C140.549 76.7614 140.902 77.0398 141.177 77.3977C141.452 77.7557 141.622 78.1733 141.689 78.6506H140.515C140.426 78.3026 140.227 77.9943 139.919 77.7259C139.614 77.4541 139.203 77.3182 138.686 77.3182C138.229 77.3182 137.827 77.4375 137.483 77.6761C137.141 77.9115 136.875 78.2446 136.682 78.6754C136.493 79.103 136.399 79.6051 136.399 80.1818C136.399 80.7718 136.492 81.2855 136.677 81.723C136.866 82.1605 137.131 82.5002 137.473 82.7422C137.818 82.9841 138.222 83.1051 138.686 83.1051C138.991 83.1051 139.268 83.0521 139.516 82.946C139.765 82.84 139.975 82.6875 140.148 82.4886C140.32 82.2898 140.443 82.0511 140.515 81.7727H141.689C141.622 82.2235 141.458 82.6295 141.197 82.9908C140.938 83.3487 140.595 83.6338 140.167 83.8459C139.743 84.0547 139.249 84.1591 138.686 84.1591ZM146.725 76.3636V77.358H142.768V76.3636H146.725ZM143.921 74.5341H145.094V81.8125C145.094 82.1439 145.142 82.3925 145.238 82.5582C145.338 82.7206 145.464 82.83 145.616 82.8864C145.772 82.9394 145.936 82.9659 146.108 82.9659C146.238 82.9659 146.344 82.9593 146.427 82.946C146.51 82.9295 146.576 82.9162 146.626 82.9062L146.864 83.9602C146.785 83.9901 146.674 84.0199 146.531 84.0497C146.389 84.0829 146.208 84.0994 145.989 84.0994C145.658 84.0994 145.333 84.0282 145.015 83.8857C144.7 83.7431 144.438 83.526 144.229 83.2344C144.024 82.9427 143.921 82.5748 143.921 82.1307V74.5341ZM151.51 84.1591C150.821 84.1591 150.216 83.995 149.695 83.6669C149.178 83.3388 148.774 82.8797 148.482 82.2898C148.194 81.6998 148.05 81.0104 148.05 80.2216C148.05 79.4261 148.194 78.7318 148.482 78.1385C148.774 77.5452 149.178 77.0845 149.695 76.7564C150.216 76.4283 150.821 76.2642 151.51 76.2642C152.2 76.2642 152.803 76.4283 153.32 76.7564C153.84 77.0845 154.244 77.5452 154.533 78.1385C154.825 78.7318 154.97 79.4261 154.97 80.2216C154.97 81.0104 154.825 81.6998 154.533 82.2898C154.244 82.8797 153.84 83.3388 153.32 83.6669C152.803 83.995 152.2 84.1591 151.51 84.1591ZM151.51 83.1051C152.034 83.1051 152.465 82.9709 152.803 82.7024C153.141 82.4339 153.391 82.081 153.553 81.6435C153.716 81.206 153.797 80.732 153.797 80.2216C153.797 79.7112 153.716 79.2356 153.553 78.7947C153.391 78.3539 153.141 77.9976 152.803 77.7259C152.465 77.4541 152.034 77.3182 151.51 77.3182C150.986 77.3182 150.556 77.4541 150.218 77.7259C149.879 77.9976 149.629 78.3539 149.467 78.7947C149.304 79.2356 149.223 79.7112 149.223 80.2216C149.223 80.732 149.304 81.206 149.467 81.6435C149.629 82.081 149.879 82.4339 150.218 82.7024C150.556 82.9709 150.986 83.1051 151.51 83.1051ZM156.761 84V76.3636H157.895V77.517H157.974C158.114 77.1392 158.366 76.8326 158.73 76.5973C159.095 76.362 159.506 76.2443 159.963 76.2443C160.049 76.2443 160.157 76.246 160.286 76.2493C160.415 76.2526 160.513 76.2576 160.58 76.2642V77.4574C160.54 77.4474 160.449 77.4325 160.306 77.4126C160.167 77.3894 160.019 77.3778 159.864 77.3778C159.492 77.3778 159.161 77.4557 158.869 77.6115C158.581 77.764 158.352 77.9761 158.183 78.2479C158.018 78.5163 157.935 78.8229 157.935 79.1676V84H156.761Z" fill="#6D7280"/>
<path d="M237.386 38.3636V42.3636H236.136V38.3636H237.386ZM240.295 38.3636V42.3636H239.045V38.3636H240.295ZM242.862 50V38.3636H244.271V48.75H249.68V50H242.862ZM255.226 50.1818C254.438 50.1818 253.747 49.9943 253.152 49.6193C252.561 49.2443 252.099 48.7197 251.766 48.0455C251.436 47.3712 251.271 46.5833 251.271 45.6818C251.271 44.7727 251.436 43.9792 251.766 43.3011C252.099 42.6231 252.561 42.0966 253.152 41.7216C253.747 41.3466 254.438 41.1591 255.226 41.1591C256.014 41.1591 256.703 41.3466 257.294 41.7216C257.889 42.0966 258.351 42.6231 258.68 43.3011C259.014 43.9792 259.18 44.7727 259.18 45.6818C259.18 46.5833 259.014 47.3712 258.68 48.0455C258.351 48.7197 257.889 49.2443 257.294 49.6193C256.703 49.9943 256.014 50.1818 255.226 50.1818ZM255.226 48.9773C255.824 48.9773 256.317 48.8239 256.703 48.517C257.089 48.2102 257.375 47.8068 257.561 47.3068C257.747 46.8068 257.839 46.2652 257.839 45.6818C257.839 45.0985 257.747 44.5549 257.561 44.0511C257.375 43.5473 257.089 43.1402 256.703 42.8295C256.317 42.5189 255.824 42.3636 255.226 42.3636C254.627 42.3636 254.135 42.5189 253.749 42.8295C253.362 43.1402 253.076 43.5473 252.891 44.0511C252.705 44.5549 252.612 45.0985 252.612 45.6818C252.612 46.2652 252.705 46.8068 252.891 47.3068C253.076 47.8068 253.362 48.2102 253.749 48.517C254.135 48.8239 254.627 48.9773 255.226 48.9773ZM261.227 50V41.2727H262.523V42.5909H262.614C262.773 42.1591 263.061 41.8087 263.477 41.5398C263.894 41.2708 264.364 41.1364 264.886 41.1364C264.985 41.1364 265.108 41.1383 265.256 41.142C265.403 41.1458 265.515 41.1515 265.591 41.1591V42.5227C265.545 42.5114 265.441 42.4943 265.278 42.4716C265.119 42.4451 264.951 42.4318 264.773 42.4318C264.348 42.4318 263.97 42.5208 263.636 42.6989C263.307 42.8731 263.045 43.1155 262.852 43.4261C262.663 43.733 262.568 44.0833 262.568 44.4773V50H261.227ZM270.574 50.1818C269.733 50.1818 269.008 49.9962 268.398 49.625C267.792 49.25 267.324 48.7273 266.994 48.0568C266.669 47.3826 266.506 46.5985 266.506 45.7045C266.506 44.8106 266.669 44.0227 266.994 43.3409C267.324 42.6553 267.782 42.1212 268.369 41.7386C268.96 41.3523 269.65 41.1591 270.438 41.1591C270.892 41.1591 271.341 41.2348 271.784 41.3864C272.227 41.5379 272.631 41.7841 272.994 42.125C273.358 42.4621 273.648 42.9091 273.864 43.4659C274.08 44.0227 274.188 44.7083 274.188 45.5227V46.0909H267.46V44.9318H272.824C272.824 44.4394 272.725 44 272.528 43.6136C272.335 43.2273 272.059 42.9223 271.699 42.6989C271.343 42.4754 270.922 42.3636 270.438 42.3636C269.903 42.3636 269.441 42.4962 269.051 42.7614C268.665 43.0227 268.367 43.3636 268.159 43.7841C267.951 44.2045 267.847 44.6553 267.847 45.1364V45.9091C267.847 46.5682 267.96 47.1269 268.188 47.5852C268.419 48.0398 268.739 48.3864 269.148 48.625C269.557 48.8598 270.032 48.9773 270.574 48.9773C270.926 48.9773 271.244 48.928 271.528 48.8295C271.816 48.7273 272.064 48.5758 272.273 48.375C272.481 48.1705 272.642 47.9167 272.756 47.6136L274.051 47.9773C273.915 48.4167 273.686 48.803 273.364 49.1364C273.042 49.4659 272.644 49.7235 272.17 49.9091C271.697 50.0909 271.165 50.1818 270.574 50.1818ZM276.227 50V41.2727H277.523V42.6364H277.636C277.818 42.1705 278.112 41.8087 278.517 41.5511C278.922 41.2898 279.409 41.1591 279.977 41.1591C280.553 41.1591 281.032 41.2898 281.415 41.5511C281.801 41.8087 282.102 42.1705 282.318 42.6364H282.409C282.633 42.1856 282.968 41.8277 283.415 41.5625C283.862 41.2936 284.398 41.1591 285.023 41.1591C285.803 41.1591 286.441 41.4034 286.938 41.892C287.434 42.3769 287.682 43.1326 287.682 44.1591V50H286.341V44.1591C286.341 43.5152 286.165 43.0549 285.812 42.7784C285.46 42.5019 285.045 42.3636 284.568 42.3636C283.955 42.3636 283.479 42.5492 283.142 42.9205C282.805 43.2879 282.636 43.7538 282.636 44.3182V50H281.273V44.0227C281.273 43.5265 281.112 43.1269 280.79 42.8239C280.468 42.517 280.053 42.3636 279.545 42.3636C279.197 42.3636 278.871 42.4564 278.568 42.642C278.269 42.8277 278.027 43.0852 277.841 43.4148C277.659 43.7405 277.568 44.1174 277.568 44.5455V50H276.227ZM294.634 50V41.2727H295.974V50H294.634ZM295.315 39.8182C295.054 39.8182 294.829 39.7292 294.639 39.5511C294.454 39.3731 294.361 39.1591 294.361 38.9091C294.361 38.6591 294.454 38.4451 294.639 38.267C294.829 38.089 295.054 38 295.315 38C295.577 38 295.8 38.089 295.986 38.267C296.175 38.4451 296.27 38.6591 296.27 38.9091C296.27 39.1591 296.175 39.3731 295.986 39.5511C295.8 39.7292 295.577 39.8182 295.315 39.8182ZM298.43 53.2727V41.2727H299.726V42.6591H299.885C299.983 42.5076 300.12 42.3144 300.294 42.0795C300.472 41.8409 300.726 41.6288 301.055 41.4432C301.389 41.2538 301.839 41.1591 302.408 41.1591C303.143 41.1591 303.79 41.3428 304.351 41.7102C304.911 42.0777 305.349 42.5985 305.663 43.2727C305.978 43.947 306.135 44.7424 306.135 45.6591C306.135 46.5833 305.978 47.3845 305.663 48.0625C305.349 48.7367 304.913 49.2595 304.357 49.6307C303.8 49.9981 303.158 50.1818 302.43 50.1818C301.87 50.1818 301.421 50.089 301.084 49.9034C300.747 49.714 300.487 49.5 300.305 49.2614C300.124 49.0189 299.983 48.8182 299.885 48.6591H299.771V53.2727H298.43ZM299.749 45.6364C299.749 46.2955 299.845 46.8769 300.038 47.3807C300.232 47.8807 300.514 48.2727 300.885 48.5568C301.256 48.8371 301.711 48.9773 302.249 48.9773C302.809 48.9773 303.277 48.8295 303.652 48.5341C304.031 48.2348 304.315 47.8333 304.504 47.3295C304.697 46.822 304.794 46.2576 304.794 45.6364C304.794 45.0227 304.699 44.4697 304.51 43.9773C304.324 43.4811 304.042 43.089 303.663 42.8011C303.288 42.5095 302.817 42.3636 302.249 42.3636C301.703 42.3636 301.245 42.5019 300.874 42.7784C300.502 43.0511 300.222 43.4337 300.033 43.9261C299.843 44.4148 299.749 44.9848 299.749 45.6364ZM314.362 43.2273L313.158 43.5682C313.082 43.3674 312.97 43.1723 312.822 42.983C312.679 42.7898 312.482 42.6307 312.232 42.5057C311.982 42.3807 311.661 42.3182 311.271 42.3182C310.737 42.3182 310.292 42.4413 309.936 42.6875C309.584 42.9299 309.408 43.2386 309.408 43.6136C309.408 43.947 309.529 44.2102 309.771 44.4034C310.014 44.5966 310.393 44.7576 310.908 44.8864L312.203 45.2045C312.983 45.3939 313.565 45.6837 313.947 46.0739C314.33 46.4602 314.521 46.9583 314.521 47.5682C314.521 48.0682 314.377 48.5152 314.089 48.9091C313.805 49.303 313.408 49.6136 312.896 49.8409C312.385 50.0682 311.79 50.1818 311.112 50.1818C310.222 50.1818 309.485 49.9886 308.902 49.6023C308.319 49.2159 307.949 48.6515 307.794 47.9091L309.067 47.5909C309.188 48.0606 309.417 48.4129 309.754 48.6477C310.095 48.8826 310.54 49 311.089 49C311.714 49 312.211 48.8674 312.578 48.6023C312.949 48.3333 313.135 48.0114 313.135 47.6364C313.135 47.3333 313.029 47.0795 312.817 46.875C312.605 46.6667 312.279 46.5114 311.839 46.4091L310.385 46.0682C309.586 45.8788 308.999 45.5852 308.624 45.1875C308.252 44.786 308.067 44.2841 308.067 43.6818C308.067 43.1894 308.205 42.7538 308.482 42.375C308.762 41.9962 309.143 41.6989 309.624 41.483C310.108 41.267 310.658 41.1591 311.271 41.1591C312.135 41.1591 312.813 41.3485 313.305 41.7273C313.802 42.1061 314.154 42.6061 314.362 43.2273ZM322.04 46.4318V41.2727H323.381V50H322.04V48.5227H321.949C321.744 48.9659 321.426 49.3428 320.994 49.6534C320.563 49.9602 320.017 50.1136 319.358 50.1136C318.812 50.1136 318.328 49.9943 317.903 49.7557C317.479 49.5133 317.146 49.1496 316.903 48.6648C316.661 48.1761 316.54 47.5606 316.54 46.8182V41.2727H317.881V46.7273C317.881 47.3636 318.059 47.8712 318.415 48.25C318.775 48.6288 319.233 48.8182 319.79 48.8182C320.123 48.8182 320.462 48.733 320.807 48.5625C321.155 48.392 321.447 48.1307 321.682 47.7784C321.92 47.4261 322.04 46.9773 322.04 46.4318ZM325.837 50V41.2727H327.132V42.6364H327.246C327.428 42.1705 327.721 41.8087 328.126 41.5511C328.532 41.2898 329.018 41.1591 329.587 41.1591C330.162 41.1591 330.642 41.2898 331.024 41.5511C331.411 41.8087 331.712 42.1705 331.928 42.6364H332.018C332.242 42.1856 332.577 41.8277 333.024 41.5625C333.471 41.2936 334.007 41.1591 334.632 41.1591C335.412 41.1591 336.051 41.4034 336.547 41.892C337.043 42.3769 337.291 43.1326 337.291 44.1591V50H335.95V44.1591C335.95 43.5152 335.774 43.0549 335.422 42.7784C335.07 42.5019 334.655 42.3636 334.178 42.3636C333.564 42.3636 333.089 42.5492 332.751 42.9205C332.414 43.2879 332.246 43.7538 332.246 44.3182V50H330.882V44.0227C330.882 43.5265 330.721 43.1269 330.399 42.8239C330.077 42.517 329.662 42.3636 329.155 42.3636C328.806 42.3636 328.481 42.4564 328.178 42.642C327.878 42.8277 327.636 43.0852 327.45 43.4148C327.268 43.7405 327.178 44.1174 327.178 44.5455V50H325.837ZM239.523 74.1818C238.795 74.1818 238.153 73.9981 237.597 73.6307C237.04 73.2595 236.604 72.7367 236.29 72.0625C235.975 71.3845 235.818 70.5833 235.818 69.6591C235.818 68.7424 235.975 67.947 236.29 67.2727C236.604 66.5985 237.042 66.0777 237.602 65.7102C238.163 65.3428 238.811 65.1591 239.545 65.1591C240.114 65.1591 240.563 65.2538 240.892 65.4432C241.225 65.6288 241.479 65.8409 241.653 66.0795C241.831 66.3144 241.97 66.5076 242.068 66.6591H242.182V62.3636H243.523V74H242.227V72.6591H242.068C241.97 72.8182 241.83 73.0189 241.648 73.2614C241.466 73.5 241.206 73.714 240.869 73.9034C240.532 74.089 240.083 74.1818 239.523 74.1818ZM239.705 72.9773C240.242 72.9773 240.697 72.8371 241.068 72.5568C241.439 72.2727 241.722 71.8807 241.915 71.3807C242.108 70.8769 242.205 70.2955 242.205 69.6364C242.205 68.9848 242.11 68.4148 241.92 67.9261C241.731 67.4337 241.451 67.0511 241.08 66.7784C240.708 66.5019 240.25 66.3636 239.705 66.3636C239.136 66.3636 238.663 66.5095 238.284 66.8011C237.909 67.089 237.627 67.4811 237.438 67.9773C237.252 68.4697 237.159 69.0227 237.159 69.6364C237.159 70.2576 237.254 70.822 237.443 71.3295C237.636 71.8333 237.92 72.2348 238.295 72.5341C238.674 72.8295 239.144 72.9773 239.705 72.9773ZM249.71 74.1818C248.922 74.1818 248.231 73.9943 247.636 73.6193C247.045 73.2443 246.583 72.7197 246.25 72.0455C245.92 71.3712 245.756 70.5833 245.756 69.6818C245.756 68.7727 245.92 67.9792 246.25 67.3011C246.583 66.6231 247.045 66.0966 247.636 65.7216C248.231 65.3466 248.922 65.1591 249.71 65.1591C250.498 65.1591 251.188 65.3466 251.778 65.7216C252.373 66.0966 252.835 66.6231 253.165 67.3011C253.498 67.9792 253.665 68.7727 253.665 69.6818C253.665 70.5833 253.498 71.3712 253.165 72.0455C252.835 72.7197 252.373 73.2443 251.778 73.6193C251.188 73.9943 250.498 74.1818 249.71 74.1818ZM249.71 72.9773C250.309 72.9773 250.801 72.8239 251.188 72.517C251.574 72.2102 251.86 71.8068 252.045 71.3068C252.231 70.8068 252.324 70.2652 252.324 69.6818C252.324 69.0985 252.231 68.5549 252.045 68.0511C251.86 67.5473 251.574 67.1402 251.188 66.8295C250.801 66.5189 250.309 66.3636 249.71 66.3636C249.112 66.3636 248.619 66.5189 248.233 66.8295C247.847 67.1402 247.561 67.5473 247.375 68.0511C247.189 68.5549 247.097 69.0985 247.097 69.6818C247.097 70.2652 247.189 70.8068 247.375 71.3068C247.561 71.8068 247.847 72.2102 248.233 72.517C248.619 72.8239 249.112 72.9773 249.71 72.9773ZM257.053 62.3636V74H255.712V62.3636H257.053ZM263.054 74.1818C262.266 74.1818 261.575 73.9943 260.98 73.6193C260.389 73.2443 259.927 72.7197 259.594 72.0455C259.264 71.3712 259.099 70.5833 259.099 69.6818C259.099 68.7727 259.264 67.9792 259.594 67.3011C259.927 66.6231 260.389 66.0966 260.98 65.7216C261.575 65.3466 262.266 65.1591 263.054 65.1591C263.842 65.1591 264.531 65.3466 265.122 65.7216C265.717 66.0966 266.179 66.6231 266.509 67.3011C266.842 67.9792 267.009 68.7727 267.009 69.6818C267.009 70.5833 266.842 71.3712 266.509 72.0455C266.179 72.7197 265.717 73.2443 265.122 73.6193C264.531 73.9943 263.842 74.1818 263.054 74.1818ZM263.054 72.9773C263.652 72.9773 264.145 72.8239 264.531 72.517C264.918 72.2102 265.204 71.8068 265.389 71.3068C265.575 70.8068 265.668 70.2652 265.668 69.6818C265.668 69.0985 265.575 68.5549 265.389 68.0511C265.204 67.5473 264.918 67.1402 264.531 66.8295C264.145 66.5189 263.652 66.3636 263.054 66.3636C262.455 66.3636 261.963 66.5189 261.577 66.8295C261.19 67.1402 260.904 67.5473 260.719 68.0511C260.533 68.5549 260.44 69.0985 260.44 69.6818C260.44 70.2652 260.533 70.8068 260.719 71.3068C260.904 71.8068 261.19 72.2102 261.577 72.517C261.963 72.8239 262.455 72.9773 263.054 72.9773ZM269.055 74V65.2727H270.351V66.5909H270.442C270.601 66.1591 270.889 65.8087 271.305 65.5398C271.722 65.2708 272.192 65.1364 272.714 65.1364C272.813 65.1364 272.936 65.1383 273.084 65.142C273.232 65.1458 273.343 65.1515 273.419 65.1591V66.5227C273.374 66.5114 273.269 66.4943 273.107 66.4716C272.947 66.4451 272.779 66.4318 272.601 66.4318C272.177 66.4318 271.798 66.5208 271.464 66.6989C271.135 66.8731 270.874 67.1155 270.68 67.4261C270.491 67.733 270.396 68.0833 270.396 68.4773V74H269.055ZM285.69 67.2273L284.486 67.5682C284.41 67.3674 284.298 67.1723 284.151 66.983C284.007 66.7898 283.81 66.6307 283.56 66.5057C283.31 66.3807 282.99 66.3182 282.599 66.3182C282.065 66.3182 281.62 66.4413 281.264 66.6875C280.912 66.9299 280.736 67.2386 280.736 67.6136C280.736 67.947 280.857 68.2102 281.099 68.4034C281.342 68.5966 281.721 68.7576 282.236 68.8864L283.531 69.2045C284.312 69.3939 284.893 69.6837 285.276 70.0739C285.658 70.4602 285.849 70.9583 285.849 71.5682C285.849 72.0682 285.705 72.5152 285.418 72.9091C285.134 73.303 284.736 73.6136 284.224 73.8409C283.713 74.0682 283.118 74.1818 282.44 74.1818C281.55 74.1818 280.813 73.9886 280.23 73.6023C279.647 73.2159 279.277 72.6515 279.122 71.9091L280.395 71.5909C280.516 72.0606 280.745 72.4129 281.082 72.6477C281.423 72.8826 281.868 73 282.418 73C283.043 73 283.539 72.8674 283.906 72.6023C284.277 72.3333 284.463 72.0114 284.463 71.6364C284.463 71.3333 284.357 71.0795 284.145 70.875C283.933 70.6667 283.607 70.5114 283.168 70.4091L281.713 70.0682C280.914 69.8788 280.327 69.5852 279.952 69.1875C279.58 68.786 279.395 68.2841 279.395 67.6818C279.395 67.1894 279.533 66.7538 279.81 66.375C280.09 65.9962 280.471 65.6989 280.952 65.483C281.437 65.267 281.986 65.1591 282.599 65.1591C283.463 65.1591 284.141 65.3485 284.634 65.7273C285.13 66.1061 285.482 66.6061 285.69 67.2273ZM287.868 74V65.2727H289.209V74H287.868ZM288.55 63.8182C288.288 63.8182 288.063 63.7292 287.874 63.5511C287.688 63.3731 287.595 63.1591 287.595 62.9091C287.595 62.6591 287.688 62.4451 287.874 62.267C288.063 62.089 288.288 62 288.55 62C288.811 62 289.035 62.089 289.22 62.267C289.41 62.4451 289.504 62.6591 289.504 62.9091C289.504 63.1591 289.41 63.3731 289.22 63.5511C289.035 63.7292 288.811 63.8182 288.55 63.8182ZM295.46 65.2727V66.4091H290.938V65.2727H295.46ZM292.256 63.1818H293.597V71.5C293.597 71.8788 293.652 72.1629 293.761 72.3523C293.875 72.5379 294.019 72.6629 294.193 72.7273C294.371 72.7879 294.559 72.8182 294.756 72.8182C294.903 72.8182 295.025 72.8106 295.119 72.7955C295.214 72.7765 295.29 72.7614 295.347 72.75L295.619 73.9545C295.528 73.9886 295.402 74.0227 295.239 74.0568C295.076 74.0947 294.869 74.1136 294.619 74.1136C294.241 74.1136 293.869 74.0322 293.506 73.8693C293.146 73.7064 292.847 73.4583 292.608 73.125C292.373 72.7917 292.256 72.3712 292.256 71.8636V63.1818ZM304.545 74.2045C303.992 74.2045 303.491 74.1004 303.04 73.892C302.589 73.6799 302.231 73.375 301.966 72.9773C301.701 72.5758 301.568 72.0909 301.568 71.5227C301.568 71.0227 301.667 70.6174 301.864 70.3068C302.061 69.9924 302.324 69.7462 302.653 69.5682C302.983 69.3902 303.347 69.2576 303.744 69.1705C304.146 69.0795 304.549 69.0076 304.955 68.9545C305.485 68.8864 305.915 68.8352 306.244 68.8011C306.578 68.7633 306.82 68.7008 306.972 68.6136C307.127 68.5265 307.205 68.375 307.205 68.1591V68.1136C307.205 67.553 307.051 67.1174 306.744 66.8068C306.441 66.4962 305.981 66.3409 305.364 66.3409C304.723 66.3409 304.222 66.4811 303.858 66.7614C303.494 67.0417 303.239 67.3409 303.091 67.6591L301.818 67.2045C302.045 66.6742 302.348 66.2614 302.727 65.9659C303.11 65.6667 303.527 65.4583 303.977 65.3409C304.432 65.2197 304.879 65.1591 305.318 65.1591C305.598 65.1591 305.92 65.1932 306.284 65.2614C306.652 65.3258 307.006 65.4602 307.347 65.6648C307.691 65.8693 307.977 66.178 308.205 66.5909C308.432 67.0038 308.545 67.5568 308.545 68.25V74H307.205V72.8182H307.136C307.045 73.0076 306.894 73.2102 306.682 73.4261C306.47 73.642 306.188 73.8258 305.835 73.9773C305.483 74.1288 305.053 74.2045 304.545 74.2045ZM304.75 73C305.28 73 305.727 72.8958 306.091 72.6875C306.458 72.4792 306.735 72.2102 306.92 71.8807C307.11 71.5511 307.205 71.2045 307.205 70.8409V69.6136C307.148 69.6818 307.023 69.7443 306.83 69.8011C306.64 69.8542 306.42 69.9015 306.17 69.9432C305.924 69.9811 305.684 70.0152 305.449 70.0455C305.218 70.072 305.03 70.0947 304.886 70.1136C304.538 70.1591 304.212 70.233 303.909 70.3352C303.61 70.4337 303.367 70.5833 303.182 70.7841C303 70.9811 302.909 71.25 302.909 71.5909C302.909 72.0568 303.081 72.4091 303.426 72.6477C303.775 72.8826 304.216 73 304.75 73ZM310.993 74V65.2727H312.288V66.6364H312.402C312.584 66.1705 312.877 65.8087 313.283 65.5511C313.688 65.2898 314.175 65.1591 314.743 65.1591C315.319 65.1591 315.798 65.2898 316.18 65.5511C316.567 65.8087 316.868 66.1705 317.084 66.6364H317.175C317.398 66.1856 317.733 65.8277 318.18 65.5625C318.627 65.2936 319.163 65.1591 319.788 65.1591C320.569 65.1591 321.207 65.4034 321.703 65.892C322.199 66.3769 322.447 67.1326 322.447 68.1591V74H321.107V68.1591C321.107 67.5152 320.93 67.0549 320.578 66.7784C320.226 66.5019 319.811 66.3636 319.334 66.3636C318.72 66.3636 318.245 66.5492 317.908 66.9205C317.571 67.2879 317.402 67.7538 317.402 68.3182V74H316.038V68.0227C316.038 67.5265 315.877 67.1269 315.555 66.8239C315.233 66.517 314.819 66.3636 314.311 66.3636C313.963 66.3636 313.637 66.4564 313.334 66.642C313.035 66.8277 312.792 67.0852 312.607 67.4148C312.425 67.7405 312.334 68.1174 312.334 68.5455V74H310.993ZM328.558 74.1818C327.717 74.1818 326.992 73.9962 326.382 73.625C325.776 73.25 325.308 72.7273 324.979 72.0568C324.653 71.3826 324.49 70.5985 324.49 69.7045C324.49 68.8106 324.653 68.0227 324.979 67.3409C325.308 66.6553 325.767 66.1212 326.354 65.7386C326.945 65.3523 327.634 65.1591 328.422 65.1591C328.876 65.1591 329.325 65.2348 329.768 65.3864C330.212 65.5379 330.615 65.7841 330.979 66.125C331.342 66.4621 331.632 66.9091 331.848 67.4659C332.064 68.0227 332.172 68.7083 332.172 69.5227V70.0909H325.445V68.9318H330.808C330.808 68.4394 330.71 68 330.513 67.6136C330.32 67.2273 330.043 66.9223 329.683 66.6989C329.327 66.4754 328.907 66.3636 328.422 66.3636C327.888 66.3636 327.426 66.4962 327.036 66.7614C326.649 67.0227 326.352 67.3636 326.143 67.7841C325.935 68.2045 325.831 68.6553 325.831 69.1364V69.9091C325.831 70.5682 325.945 71.1269 326.172 71.5852C326.403 72.0398 326.723 72.3864 327.132 72.625C327.541 72.8598 328.017 72.9773 328.558 72.9773C328.911 72.9773 329.229 72.928 329.513 72.8295C329.801 72.7273 330.049 72.5758 330.257 72.375C330.465 72.1705 330.626 71.9167 330.74 71.6136L332.036 71.9773C331.899 72.4167 331.67 72.803 331.348 73.1364C331.026 73.4659 330.628 73.7235 330.155 73.9091C329.681 74.0909 329.149 74.1818 328.558 74.1818ZM338.007 65.2727V66.4091H333.484V65.2727H338.007ZM334.803 63.1818H336.143V71.5C336.143 71.8788 336.198 72.1629 336.308 72.3523C336.422 72.5379 336.566 72.6629 336.74 72.7273C336.918 72.7879 337.106 72.8182 337.303 72.8182C337.45 72.8182 337.571 72.8106 337.666 72.7955C337.761 72.7765 337.837 72.7614 337.893 72.75L338.166 73.9545C338.075 73.9886 337.948 74.0227 337.786 74.0568C337.623 74.0947 337.416 74.1136 337.166 74.1136C336.787 74.1136 336.416 74.0322 336.053 73.8693C335.693 73.7064 335.393 73.4583 335.155 73.125C334.92 72.7917 334.803 72.3712 334.803 71.8636V63.1818ZM342.024 72.4091L341.933 73.0227C341.869 73.4545 341.77 73.9167 341.638 74.4091C341.509 74.9015 341.375 75.3655 341.234 75.8011C341.094 76.2367 340.979 76.5833 340.888 76.8409H339.865C339.914 76.5985 339.979 76.2784 340.058 75.8807C340.138 75.483 340.217 75.0379 340.297 74.5455C340.38 74.0568 340.448 73.5568 340.501 73.0455L340.57 72.4091H342.024ZM239.773 98.1818C238.955 98.1818 238.25 97.9886 237.659 97.6023C237.068 97.2159 236.614 96.6837 236.295 96.0057C235.977 95.3277 235.818 94.553 235.818 93.6818C235.818 92.7955 235.981 92.0133 236.307 91.3352C236.636 90.6534 237.095 90.1212 237.682 89.7386C238.273 89.3523 238.962 89.1591 239.75 89.1591C240.364 89.1591 240.917 89.2727 241.409 89.5C241.902 89.7273 242.305 90.0455 242.619 90.4545C242.934 90.8636 243.129 91.3409 243.205 91.8864H241.864C241.761 91.4886 241.534 91.1364 241.182 90.8295C240.833 90.5189 240.364 90.3636 239.773 90.3636C239.25 90.3636 238.792 90.5 238.398 90.7727C238.008 91.0417 237.703 91.4223 237.483 91.9148C237.267 92.4034 237.159 92.9773 237.159 93.6364C237.159 94.3106 237.265 94.8977 237.477 95.3977C237.693 95.8977 237.996 96.286 238.386 96.5625C238.78 96.839 239.242 96.9773 239.773 96.9773C240.121 96.9773 240.438 96.9167 240.722 96.7955C241.006 96.6742 241.246 96.5 241.443 96.2727C241.64 96.0455 241.78 95.7727 241.864 95.4545H243.205C243.129 95.9697 242.941 96.4337 242.642 96.8466C242.347 97.2557 241.955 97.5814 241.466 97.8239C240.981 98.0625 240.417 98.1818 239.773 98.1818ZM248.71 98.1818C247.922 98.1818 247.231 97.9943 246.636 97.6193C246.045 97.2443 245.583 96.7197 245.25 96.0455C244.92 95.3712 244.756 94.5833 244.756 93.6818C244.756 92.7727 244.92 91.9792 245.25 91.3011C245.583 90.6231 246.045 90.0966 246.636 89.7216C247.231 89.3466 247.922 89.1591 248.71 89.1591C249.498 89.1591 250.188 89.3466 250.778 89.7216C251.373 90.0966 251.835 90.6231 252.165 91.3011C252.498 91.9792 252.665 92.7727 252.665 93.6818C252.665 94.5833 252.498 95.3712 252.165 96.0455C251.835 96.7197 251.373 97.2443 250.778 97.6193C250.188 97.9943 249.498 98.1818 248.71 98.1818ZM248.71 96.9773C249.309 96.9773 249.801 96.8239 250.188 96.517C250.574 96.2102 250.86 95.8068 251.045 95.3068C251.231 94.8068 251.324 94.2652 251.324 93.6818C251.324 93.0985 251.231 92.5549 251.045 92.0511C250.86 91.5473 250.574 91.1402 250.188 90.8295C249.801 90.5189 249.309 90.3636 248.71 90.3636C248.112 90.3636 247.619 90.5189 247.233 90.8295C246.847 91.1402 246.561 91.5473 246.375 92.0511C246.189 92.5549 246.097 93.0985 246.097 93.6818C246.097 94.2652 246.189 94.8068 246.375 95.3068C246.561 95.8068 246.847 96.2102 247.233 96.517C247.619 96.8239 248.112 96.9773 248.71 96.9773ZM256.053 92.75V98H254.712V89.2727H256.007V90.6364H256.121C256.325 90.1932 256.636 89.8371 257.053 89.5682C257.469 89.2955 258.007 89.1591 258.666 89.1591C259.257 89.1591 259.774 89.2803 260.217 89.5227C260.661 89.7614 261.005 90.125 261.251 90.6136C261.498 91.0985 261.621 91.7121 261.621 92.4545V98H260.28V92.5455C260.28 91.8598 260.102 91.3258 259.746 90.9432C259.39 90.5568 258.901 90.3636 258.28 90.3636C257.852 90.3636 257.469 90.4564 257.132 90.642C256.799 90.8277 256.536 91.0985 256.342 91.4545C256.149 91.8106 256.053 92.2424 256.053 92.75ZM270.253 91.2273L269.048 91.5682C268.973 91.3674 268.861 91.1723 268.713 90.983C268.569 90.7898 268.372 90.6307 268.122 90.5057C267.872 90.3807 267.552 90.3182 267.162 90.3182C266.628 90.3182 266.183 90.4413 265.827 90.6875C265.474 90.9299 265.298 91.2386 265.298 91.6136C265.298 91.947 265.42 92.2102 265.662 92.4034C265.904 92.5966 266.283 92.7576 266.798 92.8864L268.094 93.2045C268.874 93.3939 269.455 93.6837 269.838 94.0739C270.221 94.4602 270.412 94.9583 270.412 95.5682C270.412 96.0682 270.268 96.5152 269.98 96.9091C269.696 97.303 269.298 97.6136 268.787 97.8409C268.276 98.0682 267.681 98.1818 267.003 98.1818C266.113 98.1818 265.376 97.9886 264.793 97.6023C264.209 97.2159 263.84 96.6515 263.685 95.9091L264.957 95.5909C265.079 96.0606 265.308 96.4129 265.645 96.6477C265.986 96.8826 266.431 97 266.98 97C267.605 97 268.101 96.8674 268.469 96.6023C268.84 96.3333 269.026 96.0114 269.026 95.6364C269.026 95.3333 268.92 95.0795 268.707 94.875C268.495 94.6667 268.17 94.5114 267.73 94.4091L266.276 94.0682C265.476 93.8788 264.889 93.5852 264.514 93.1875C264.143 92.786 263.957 92.2841 263.957 91.6818C263.957 91.1894 264.096 90.7538 264.372 90.375C264.652 89.9962 265.033 89.6989 265.514 89.483C265.999 89.267 266.548 89.1591 267.162 89.1591C268.026 89.1591 268.704 89.3485 269.196 89.7273C269.692 90.1061 270.045 90.6061 270.253 91.2273ZM276.089 98.1818C275.249 98.1818 274.523 97.9962 273.913 97.625C273.307 97.25 272.839 96.7273 272.51 96.0568C272.184 95.3826 272.021 94.5985 272.021 93.7045C272.021 92.8106 272.184 92.0227 272.51 91.3409C272.839 90.6553 273.298 90.1212 273.885 89.7386C274.476 89.3523 275.165 89.1591 275.953 89.1591C276.408 89.1591 276.857 89.2348 277.3 89.3864C277.743 89.5379 278.146 89.7841 278.51 90.125C278.874 90.4621 279.163 90.9091 279.379 91.4659C279.595 92.0227 279.703 92.7083 279.703 93.5227V94.0909H272.976V92.9318H278.339C278.339 92.4394 278.241 92 278.044 91.6136C277.851 91.2273 277.574 90.9223 277.214 90.6989C276.858 90.4754 276.438 90.3636 275.953 90.3636C275.419 90.3636 274.957 90.4962 274.567 90.7614C274.18 91.0227 273.883 91.3636 273.675 91.7841C273.466 92.2045 273.362 92.6553 273.362 93.1364V93.9091C273.362 94.5682 273.476 95.1269 273.703 95.5852C273.934 96.0398 274.254 96.3864 274.663 96.625C275.072 96.8598 275.548 96.9773 276.089 96.9773C276.442 96.9773 276.76 96.928 277.044 96.8295C277.332 96.7273 277.58 96.5758 277.788 96.375C277.997 96.1705 278.158 95.9167 278.271 95.6136L279.567 95.9773C279.43 96.4167 279.201 96.803 278.879 97.1364C278.557 97.4659 278.16 97.7235 277.686 97.9091C277.213 98.0909 276.68 98.1818 276.089 98.1818ZM285.288 98.1818C284.47 98.1818 283.766 97.9886 283.175 97.6023C282.584 97.2159 282.129 96.6837 281.811 96.0057C281.493 95.3277 281.334 94.553 281.334 93.6818C281.334 92.7955 281.497 92.0133 281.822 91.3352C282.152 90.6534 282.61 90.1212 283.197 89.7386C283.788 89.3523 284.478 89.1591 285.266 89.1591C285.879 89.1591 286.432 89.2727 286.925 89.5C287.417 89.7273 287.821 90.0455 288.135 90.4545C288.449 90.8636 288.644 91.3409 288.72 91.8864H287.379C287.277 91.4886 287.05 91.1364 286.697 90.8295C286.349 90.5189 285.879 90.3636 285.288 90.3636C284.766 90.3636 284.307 90.5 283.913 90.7727C283.523 91.0417 283.218 91.4223 282.999 91.9148C282.783 92.4034 282.675 92.9773 282.675 93.6364C282.675 94.3106 282.781 94.8977 282.993 95.3977C283.209 95.8977 283.512 96.286 283.902 96.5625C284.296 96.839 284.758 96.9773 285.288 96.9773C285.637 96.9773 285.953 96.9167 286.237 96.7955C286.521 96.6742 286.762 96.5 286.959 96.2727C287.156 96.0455 287.296 95.7727 287.379 95.4545H288.72C288.644 95.9697 288.457 96.4337 288.158 96.8466C287.862 97.2557 287.47 97.5814 286.982 97.8239C286.497 98.0625 285.932 98.1818 285.288 98.1818ZM294.476 89.2727V90.4091H289.953V89.2727H294.476ZM291.271 87.1818H292.612V95.5C292.612 95.8788 292.667 96.1629 292.777 96.3523C292.891 96.5379 293.035 96.6629 293.209 96.7273C293.387 96.7879 293.574 96.8182 293.771 96.8182C293.919 96.8182 294.04 96.8106 294.135 96.7955C294.23 96.7765 294.305 96.7614 294.362 96.75L294.635 97.9545C294.544 97.9886 294.417 98.0227 294.254 98.0568C294.091 98.0947 293.885 98.1136 293.635 98.1136C293.256 98.1136 292.885 98.0322 292.521 97.8693C292.161 97.7064 291.862 97.4583 291.624 97.125C291.389 96.7917 291.271 96.3712 291.271 95.8636V87.1818ZM300.058 98.1818C299.217 98.1818 298.492 97.9962 297.882 97.625C297.276 97.25 296.808 96.7273 296.479 96.0568C296.153 95.3826 295.99 94.5985 295.99 93.7045C295.99 92.8106 296.153 92.0227 296.479 91.3409C296.808 90.6553 297.267 90.1212 297.854 89.7386C298.445 89.3523 299.134 89.1591 299.922 89.1591C300.376 89.1591 300.825 89.2348 301.268 89.3864C301.712 89.5379 302.115 89.7841 302.479 90.125C302.842 90.4621 303.132 90.9091 303.348 91.4659C303.564 92.0227 303.672 92.7083 303.672 93.5227V94.0909H296.945V92.9318H302.308C302.308 92.4394 302.21 92 302.013 91.6136C301.82 91.2273 301.543 90.9223 301.183 90.6989C300.827 90.4754 300.407 90.3636 299.922 90.3636C299.388 90.3636 298.926 90.4962 298.536 90.7614C298.149 91.0227 297.852 91.3636 297.643 91.7841C297.435 92.2045 297.331 92.6553 297.331 93.1364V93.9091C297.331 94.5682 297.445 95.1269 297.672 95.5852C297.903 96.0398 298.223 96.3864 298.632 96.625C299.041 96.8598 299.517 96.9773 300.058 96.9773C300.411 96.9773 300.729 96.928 301.013 96.8295C301.301 96.7273 301.549 96.5758 301.757 96.375C301.965 96.1705 302.126 95.9167 302.24 95.6136L303.536 95.9773C303.399 96.4167 303.17 96.803 302.848 97.1364C302.526 97.4659 302.128 97.7235 301.655 97.9091C301.181 98.0909 300.649 98.1818 300.058 98.1818ZM309.507 89.2727V90.4091H304.984V89.2727H309.507ZM306.303 87.1818H307.643V95.5C307.643 95.8788 307.698 96.1629 307.808 96.3523C307.922 96.5379 308.066 96.6629 308.24 96.7273C308.418 96.7879 308.606 96.8182 308.803 96.8182C308.95 96.8182 309.071 96.8106 309.166 96.7955C309.261 96.7765 309.337 96.7614 309.393 96.75L309.666 97.9545C309.575 97.9886 309.448 98.0227 309.286 98.0568C309.123 98.0947 308.916 98.1136 308.666 98.1136C308.287 98.1136 307.916 98.0322 307.553 97.8693C307.193 97.7064 306.893 97.4583 306.655 97.125C306.42 96.7917 306.303 96.3712 306.303 95.8636V87.1818ZM317.024 94.4318V89.2727H318.365V98H317.024V96.5227H316.933C316.729 96.9659 316.411 97.3428 315.979 97.6534C315.547 97.9602 315.001 98.1136 314.342 98.1136C313.797 98.1136 313.312 97.9943 312.888 97.7557C312.464 97.5133 312.13 97.1496 311.888 96.6648C311.645 96.1761 311.524 95.5606 311.524 94.8182V89.2727H312.865V94.7273C312.865 95.3636 313.043 95.8712 313.399 96.25C313.759 96.6288 314.217 96.8182 314.774 96.8182C315.107 96.8182 315.446 96.733 315.791 96.5625C316.14 96.392 316.431 96.1307 316.666 95.7784C316.905 95.4261 317.024 94.9773 317.024 94.4318ZM320.821 98V89.2727H322.116V90.5909H322.207C322.366 90.1591 322.654 89.8087 323.071 89.5398C323.488 89.2708 323.957 89.1364 324.48 89.1364C324.579 89.1364 324.702 89.1383 324.849 89.142C324.997 89.1458 325.109 89.1515 325.185 89.1591V90.5227C325.139 90.5114 325.035 90.4943 324.872 90.4716C324.713 90.4451 324.545 90.4318 324.366 90.4318C323.942 90.4318 323.563 90.5208 323.23 90.6989C322.901 90.8731 322.639 91.1155 322.446 91.4261C322.257 91.733 322.162 92.0833 322.162 92.4773V98H320.821Z" fill="#374151"/>
</svg>
